<?xml version="1.0" standalone="no"?><!DOCTYPE svg PUBLIC "-//W3C//DTD SVG 1.1//EN" "http://www.w3.org/Graphics/SVG/1.1/DTD/svg11.dtd"><svg class="icon" width="200px" height="200.00px" viewBox="0 0 1024 1024" version="1.1" xmlns="http://www.w3.org/2000/svg"><path fill="#333333" d="M404.9408 485.12H217.1392a77.7216 77.7216 0 0 1-77.6192-77.6192V219.6992a77.7216 77.7216 0 0 1 77.6192-77.6192h187.8016a77.7216 77.7216 0 0 1 77.6192 77.6192v187.8016a77.7216 77.7216 0 0 1-77.6192 77.6192z m-187.8016-296.96a31.5392 31.5392 0 0 0-31.5392 31.5392v187.8016a31.5392 31.5392 0 0 0 31.5392 31.5392h187.8016a31.5392 31.5392 0 0 0 31.5392-31.5392V219.6992a31.5392 31.5392 0 0 0-31.5392-31.5392zM407.5008 881.92H219.6992a77.7216 77.7216 0 0 1-77.6192-77.6192v-187.8016a77.7216 77.7216 0 0 1 77.6192-77.6192h187.8016a77.7216 77.7216 0 0 1 77.6192 77.6192v187.8016a77.7216 77.7216 0 0 1-77.6192 77.6192z m-187.8016-296.96a31.5392 31.5392 0 0 0-31.5392 31.5392v187.8016a31.5392 31.5392 0 0 0 31.5392 31.5392h187.8016a31.5392 31.5392 0 0 0 31.5392-31.5392v-187.8016a31.5392 31.5392 0 0 0-31.5392-31.5392zM806.8608 487.68h-187.8016a77.7216 77.7216 0 0 1-77.6192-77.6192V222.2592a77.7216 77.7216 0 0 1 77.6192-77.6192h187.8016a77.7216 77.7216 0 0 1 77.6192 77.6192v187.8016a77.7216 77.7216 0 0 1-77.6192 77.6192z m-187.8016-296.96a31.5392 31.5392 0 0 0-31.5392 31.5392v187.8016a31.5392 31.5392 0 0 0 31.5392 31.5392h187.8016a31.5392 31.5392 0 0 0 31.5392-31.5392V222.2592a31.5392 31.5392 0 0 0-31.5392-31.5392zM712.96 876.8a171.52 171.52 0 1 1 171.52-171.52 171.7248 171.7248 0 0 1-171.52 171.52z m0-296.96a125.44 125.44 0 1 0 125.44 125.44 125.5936 125.5936 0 0 0-125.44-125.44z"  /></svg>