<?xml version="1.0" standalone="no"?><!DOCTYPE svg PUBLIC "-//W3C//DTD SVG 1.1//EN" "http://www.w3.org/Graphics/SVG/1.1/DTD/svg11.dtd"><svg class="icon" width="200px" height="200.00px" viewBox="0 0 1024 1024" version="1.1" xmlns="http://www.w3.org/2000/svg"><path fill="#333333" d="M906.810143 765.459757H339.150606c-15.805954 0-29.579713-10.838368-32.966703-26.418522L179.962073 182.220066H43.579272c-18.741345 0-33.869901-15.128556-33.8699-33.869901s15.128556-33.869901 33.8699-33.8699h163.252922c15.805954 0 29.579713 10.838368 32.966703 26.418522l126.221831 556.821169h540.563616c18.741345 0 33.869901 15.128556 33.869901 33.869901 0.225799 18.741345-14.902756 33.869901-33.644102 33.8699z"  /><path fill="#333333" d="M927.132084 630.431753H308.667696c-18.741345 0-33.869901-15.128556-33.869901-33.869901s15.128556-33.869901 33.869901-33.869901h589.562072l42.901875-277.055788H230.315325c-18.741345 0-33.869901-15.128556-33.869901-33.869901s15.128556-33.869901 33.869901-33.8699h750.105403c9.935171 0 19.192944 4.290187 25.741124 11.741565s9.257773 17.386549 7.677178 27.32172l-53.288644 344.79559c-2.483793 16.483352-16.709151 28.676516-33.418302 28.676516z"  /><path fill="#333333" d="M406.890408 861.198677m-63.449614 0a63.449614 63.449614 0 1 0 126.899228 0 63.449614 63.449614 0 1 0-126.899228 0Z"  /><path fill="#333333" d="M843.586329 861.198677m-63.449615 0a63.449614 63.449614 0 1 0 126.899229 0 63.449614 63.449614 0 1 0-126.899229 0Z"  /></svg>